<?xml version="1.0" standalone="no"?>
<!DOCTYPE svg PUBLIC "-//W3C//DTD SVG 20010904//EN"
 "http://www.w3.org/TR/2001/REC-SVG-20010904/DTD/svg10.dtd">
<svg version="1.0" xmlns="http://www.w3.org/2000/svg"
 width="180.000000pt" height="180.000000pt" viewBox="0 0 180.000000 180.000000"
 preserveAspectRatio="xMidYMid meet">
<metadata>
Created by potrace 1.14, written by Peter Selinger 2001-2017
</metadata>
<g transform="translate(0.000000,180.000000) scale(0.100000,-0.100000)"
fill="#000000" stroke="none">
<path d="M419 1645 c-109 -28 -193 -99 -242 -203 l-31 -67 -1 -450 c-1 -305 2
-466 10 -500 26 -113 92 -193 203 -247 l67 -32 450 -1 c305 -1 466 2 500 10
112 26 196 95 249 205 l31 65 0 455 c1 315 -2 469 -10 500 -24 91 -80 169
-160 221 -39 25 -58 34 -107 46 -46 11 -913 9 -959 -2z m813 -230 c64 -49 63
-37 64 -508 1 -486 1 -483 -74 -525 -41 -23 -45 -23 -334 -20 -275 3 -295 4
-320 23 -64 48 -63 36 -63 515 0 483 -2 469 68 517 31 21 39 22 332 20 283 -2
302 -3 327 -22z"/>
<path d="M620 1315 c-13 -16 -11 -177 3 -191 10 -10 535 -12 550 -2 17 10 23
174 7 193 -10 13 -56 15 -280 15 -224 0 -270 -2 -280 -15z"/>
<path d="M664 1040 c-52 -20 -67 -78 -30 -115 47 -47 120 -19 118 44 -1 53
-44 87 -88 71z"/>
<path d="M874 1038 c-49 -26 -59 -81 -21 -116 59 -56 146 15 107 88 -13 25
-61 41 -86 28z"/>
<path d="M1066 1021 c-10 -11 -19 -28 -20 -38 -5 -26 21 -71 45 -78 73 -24
128 65 73 119 -22 22 -77 20 -98 -3z"/>
<path d="M653 820 c-52 -21 -51 -101 2 -127 11 -5 25 -9 30 -8 76 9 96 103 28
134 -28 13 -30 13 -60 1z"/>
<path d="M856 809 c-34 -27 -35 -71 -2 -104 43 -43 116 -9 116 55 0 31 -39 70
-70 70 -10 0 -29 -9 -44 -21z"/>
<path d="M1087 823 c-29 -8 -48 -56 -36 -91 28 -81 152 -46 134 38 -3 16 -12
33 -18 39 -16 13 -58 20 -80 14z"/>
<path d="M630 583 c-23 -30 -21 -65 7 -95 14 -16 35 -18 154 -18 129 0 140 1
159 22 26 29 26 72 -2 98 -20 18 -35 20 -159 20 l-138 0 -21 -27z"/>
<path d="M1069 592 c-31 -26 -31 -78 0 -104 67 -54 154 28 101 95 -26 32 -67
36 -101 9z"/>
</g>
</svg>
